<?xml version="1.0" encoding="UTF-8"?>
<svg id="Layer_1" data-name="Layer 1" xmlns="http://www.w3.org/2000/svg" viewBox="0 0 20 19.25">
  <defs>
    <style>
      .cls-1 {
        fill: #fff;
      }
    </style>
  </defs>
  <path class="cls-1" d="M17.65,12.7l2.14,1.07c.28,.14,.28,.53,0,.67l-9.46,4.73c-.21,.1-.46,.1-.67,0L.21,14.44c-.18-.09-.26-.32-.17-.5,.04-.07,.09-.13,.17-.17l2.14-1.07,6.65,3.32c.63,.31,1.38,.31,2.01,0l6.65-3.32h0ZM9.67,.08c.21-.1,.46-.1,.67,0l9.46,4.73c.18,.09,.26,.32,.16,.5-.04,.07-.09,.13-.16,.16l-9.46,4.73c-.21,.1-.46,.1-.67,0L.21,5.48c-.18-.09-.26-.32-.17-.5,.04-.07,.09-.13,.17-.17L9.67,.08Z"/>
  <path class="cls-1" d="M17.65,8.22l2.14,1.07c.28,.14,.28,.53,0,.67l-9.46,4.73c-.21,.1-.46,.1-.67,0L.21,9.96c-.18-.09-.26-.32-.17-.5,.04-.07,.09-.13,.17-.17l2.14-1.07,6.65,3.32c.63,.31,1.38,.31,2.01,0l6.65-3.32h0Z"/>
</svg>