<?xml version="1.0" encoding="utf-8"?>
<!-- Generator: Adobe Illustrator 27.0.0, SVG Export Plug-In . SVG Version: 6.00 Build 0)  -->
<svg version="1.1" id="Layer_1" xmlns="http://www.w3.org/2000/svg" xmlns:xlink="http://www.w3.org/1999/xlink" x="0px" y="0px"
	 viewBox="0 0 20 20" style="enable-background:new 0 0 20 20;" xml:space="preserve">
<style type="text/css">
	.st0{fill:#231F20;}
</style>
<path class="st0" d="M17.6,12.7l2.1,1.1c0.3,0.1,0.3,0.5,0,0.7l-9.5,4.7c-0.2,0.1-0.5,0.1-0.7,0l-9.5-4.7C0,14.4-0.1,14.1,0,13.9
	c0-0.1,0.1-0.1,0.2-0.2l2.1-1.1L9,16c0.6,0.3,1.4,0.3,2,0L17.6,12.7L17.6,12.7z M9.7,0.1c0.2-0.1,0.5-0.1,0.7,0l9.5,4.7
	C20,4.9,20.1,5.1,20,5.3c0,0.1-0.1,0.1-0.2,0.2l-9.5,4.7c-0.2,0.1-0.5,0.1-0.7,0L0.2,5.5C0,5.4-0.1,5.2,0,5c0-0.1,0.1-0.1,0.2-0.2
	L9.7,0.1z"/>
<path class="st0" d="M17.6,8.2l2.1,1.1c0.3,0.1,0.3,0.5,0,0.7l-9.5,4.7c-0.2,0.1-0.5,0.1-0.7,0L0.2,10C0,9.9-0.1,9.6,0,9.5
	c0-0.1,0.1-0.1,0.2-0.2l2.1-1.1L9,11.5c0.6,0.3,1.4,0.3,2,0L17.6,8.2L17.6,8.2z"/>
</svg>
